<svg version="1.0" xmlns="http://www.w3.org/2000/svg"  width="294.000000pt" height="288.000000pt" viewBox="0 0 294.000000 288.000000"  preserveAspectRatio="xMidYMid meet">  <g transform="translate(0.000000,288.000000) scale(0.100000,-0.100000)" fill="#000000" stroke="none"> <path d="M280 2666 c-62 -41 -82 -79 -81 -153 0 -44 5 -71 16 -83 8 -9 15 -21 15 -26 0 -5 214 -223 475 -484 261 -261 475 -482 475 -490 0 -8 -221 -235 -490 -505 -529 -530 -496 -490 -490 -595 1 -25 8 -52 14 -60 7 -8 16 -23 19 -32 3 -9 24 -29 46 -43 56 -35 145 -35 199 -1 20 13 246 234 502 490 256 256 472 466 480 466 8 0 224 -210 480 -466 256 -256 482 -477 502 -490 76 -49 221 -20 248 50 5 13 14 27 19 31 6 3 11 39 11 82 l0 77 -490 491 c-269 270 -490 497 -490 505 0 8 212 227 470 485 259 259 479 487 490 508 30 58 28 148 -6 192 -40 53 -86 75 -155 75 -46 0 -68 -5 -97 -24 -20 -13 -246 -234 -502 -490 -256 -256 -472 -466 -480 -466 -8 0 -229 214 -490 475 -261 261 -480 475 -486 475 -6 0 -17 7 -24 15 -21 25 -137 19 -180 -9z"/> </g> </svg>