<svg version="1.0" xmlns="http://www.w3.org/2000/svg"  width="468.000000pt" height="405.000000pt" viewBox="0 0 468.000000 405.000000"  preserveAspectRatio="xMidYMid meet">  <g transform="translate(0.000000,405.000000) scale(0.100000,-0.100000)" fill="#000000" stroke="none"> <path d="M2165 3459 c-174 -28 -215 -38 -314 -74 -52 -19 -149 -62 -171 -76 -8 -5 -27 -14 -42 -20 -16 -6 -28 -15 -28 -20 0 -5 -5 -9 -11 -9 -12 0 -144 -101 -206 -157 -54 -49 -105 -109 -196 -233 -128 -173 -226 -523 -214 -763 9 -184 66 -413 128 -517 5 -8 12 -22 15 -30 3 -8 10 -22 15 -30 5 -8 14 -26 20 -40 6 -14 21 -38 33 -55 13 -16 25 -35 27 -41 16 -46 232 -264 317 -321 98 -65 269 -153 297 -153 7 0 16 -4 20 -9 3 -5 20 -12 38 -16 17 -4 52 -13 77 -20 81 -25 223 -45 315 -45 99 0 331 32 363 49 11 6 30 11 41 11 10 0 32 6 48 14 51 26 103 46 117 46 8 0 19 7 26 15 16 19 78 19 139 1 25 -8 73 -23 106 -32 33 -9 80 -23 105 -30 25 -7 72 -20 105 -29 33 -9 80 -23 105 -31 58 -18 86 -18 120 2 30 18 60 71 60 107 0 12 -6 42 -14 67 -17 53 -38 131 -61 220 -23 89 -44 167 -61 220 -19 61 -18 75 10 135 74 154 126 384 126 550 0 126 -41 355 -80 450 -95 230 -181 366 -307 485 -131 124 -196 172 -326 236 -40 20 -81 41 -92 47 -11 5 -33 14 -50 18 -16 4 -61 17 -100 29 -173 51 -371 71 -500 49z m364 -253 c41 -9 82 -21 92 -26 10 -6 25 -10 33 -10 22 0 165 -68 203 -96 17 -13 35 -24 38 -24 15 0 93 -67 175 -149 87 -87 138 -156 187 -253 110 -214 149 -479 104 -695 -28 -136 -43 -177 -101 -293 -38 -73 -42 -135 -17 -218 8 -26 22 -76 31 -112 10 -36 24 -85 32 -110 8 -25 14 -55 14 -67 0 -28 -24 -30 -90 -9 -25 8 -72 22 -105 31 -33 9 -82 24 -110 33 -82 27 -150 22 -230 -16 -126 -60 -149 -68 -302 -106 -129 -33 -338 -13 -535 50 -138 44 -244 102 -347 190 -55 48 -201 214 -201 230 0 6 -6 16 -13 22 -13 11 -65 112 -90 177 -91 234 -101 465 -30 705 22 75 100 237 135 281 15 20 28 41 28 47 0 13 218 232 232 232 5 0 27 13 47 28 37 30 221 122 241 122 7 0 33 6 59 14 144 45 143 45 296 42 90 -2 180 -10 224 -20z"/> </g> </svg>