<?xml version="1.0" standalone="no"?>
<!DOCTYPE svg PUBLIC "-//W3C//DTD SVG 20010904//EN"
 "http://www.w3.org/TR/2001/REC-SVG-20010904/DTD/svg10.dtd">
<svg version="1.0" xmlns="http://www.w3.org/2000/svg"
 width="1167.000000pt" height="384.000000pt" viewBox="0 0 1167.000000 384.000000"
 preserveAspectRatio="xMidYMid meet">
<metadata>
Created by potrace 1.10, written by Peter Selinger 2001-2011
</metadata>
<g transform="translate(0.000000,384.000000) scale(0.100000,-0.100000)"
fill="#000000" stroke="none">
<path d="M905 3375 c-172 -89 -323 -243 -415 -425 -12 -25 -26 -53 -31 -62
-14 -28 -45 -127 -64 -206 -38 -155 6 -304 124 -423 90 -90 207 -139 225 -93
7 19 -2 63 -18 84 -21 29 -36 60 -57 120 -18 53 -20 77 -16 212 5 172 12 207
77 368 55 135 198 304 216 255 3 -8 4 -401 1 -873 -6 -965 -12 -1061 -76
-1226 -40 -103 78 -83 192 32 71 71 84 92 129 207 20 49 28 88 48 215 5 38 9
411 10 904 l0 839 -39 36 c-47 43 -96 62 -176 68 -54 4 -67 0 -130 -32z"/>
<path d="M3995 3390 c-19 -21 -30 -97 -43 -305 l-7 -120 -145 3 c-109 2 -149
0 -161 -10 -23 -19 -49 -92 -49 -137 0 -61 12 -65 189 -71 l156 -5 3 -315 c3
-367 -2 -413 -67 -549 -36 -77 -129 -201 -151 -201 -6 0 -10 25 -10 58 0 57
-26 152 -49 175 -6 6 -11 16 -11 22 0 22 -118 131 -246 227 -73 54 -137 104
-143 112 -8 10 -3 23 22 57 51 67 92 148 107 211 17 73 -1 125 -51 150 -37 19
-115 23 -151 9 -13 -5 -35 -12 -49 -15 -36 -8 -122 -87 -151 -139 -37 -66 -51
-145 -37 -203 7 -27 17 -55 23 -63 10 -13 29 -43 42 -68 5 -11 -18 -68 -46
-113 -19 -29 -126 -215 -133 -230 -4 -8 -16 -28 -27 -45 -11 -16 -24 -39 -30
-50 -45 -85 -124 -183 -158 -196 -34 -13 -52 -2 -68 42 -15 41 -18 539 -4 729
14 194 -5 232 -150 307 -66 34 -154 38 -207 10 -37 -20 -163 -135 -163 -149 0
-5 -11 -24 -24 -41 -55 -75 -155 -307 -184 -431 -4 -16 -13 -31 -20 -34 -9 -3
-12 64 -12 296 0 341 6 317 -86 352 -86 32 -140 37 -164 15 -20 -18 -20 -33
-20 -634 l0 -617 22 -44 c41 -81 124 -111 215 -78 36 13 46 36 58 133 10 81
69 304 122 460 14 39 27 79 30 90 11 44 129 272 176 342 55 81 105 129 119
115 5 -5 2 -120 -8 -283 -17 -288 -15 -540 6 -644 15 -76 57 -162 94 -189 23
-17 42 -21 109 -21 73 0 87 3 126 29 25 16 63 47 86 71 40 40 165 199 165 209
0 3 13 24 29 48 16 24 39 61 51 83 12 22 30 54 41 70 10 17 23 39 29 50 6 11
19 34 30 50 11 17 24 39 30 50 6 11 19 34 30 50 11 17 24 40 30 53 5 12 14 22
20 22 23 0 178 -151 237 -231 42 -57 52 -83 60 -163 13 -129 -73 -219 -179
-186 -42 13 -142 73 -154 91 -3 5 -24 9 -47 9 -35 0 -46 -6 -74 -36 -17 -20
-39 -60 -48 -89 -15 -48 -16 -55 -1 -83 18 -35 100 -78 179 -94 96 -19 238
-21 312 -4 82 17 141 38 157 54 7 7 16 12 21 12 6 0 40 25 78 55 92 75 165
171 230 306 32 65 49 69 49 11 1 -20 7 -55 15 -77 8 -22 15 -48 15 -57 0 -16
7 -35 51 -133 37 -81 119 -149 209 -172 67 -17 101 -11 180 29 60 30 140 127
196 236 34 69 54 84 54 41 0 -40 66 -154 121 -210 99 -99 196 -128 314 -95
122 35 184 74 246 155 44 59 79 92 90 85 5 -3 9 -20 9 -37 1 -46 56 -121 121
-164 52 -35 57 -36 149 -37 79 -1 101 2 131 20 60 33 110 88 138 152 14 29 26
28 48 -5 35 -51 120 -128 168 -152 26 -13 67 -26 92 -29 49 -5 158 15 188 35
11 7 25 13 33 13 19 0 113 74 145 115 16 19 32 33 38 30 5 -4 9 -30 9 -60 l0
-53 -127 -119 c-272 -252 -354 -342 -422 -463 -24 -44 -50 -158 -45 -197 15
-115 56 -186 138 -241 80 -54 120 -64 252 -59 66 2 137 10 159 18 43 15 177
140 195 181 5 13 14 30 19 38 13 22 36 87 54 150 35 124 47 260 47 515 0 247
0 251 23 275 32 36 157 197 157 203 0 3 24 41 53 84 60 87 57 81 150 266 37
74 67 140 67 147 0 6 6 24 14 38 8 15 25 53 37 84 26 67 35 71 164 66 91 -3
90 -3 67 -98 -33 -135 -42 -223 -42 -390 0 -142 4 -188 19 -242 39 -134 96
-221 187 -284 56 -39 57 -39 153 -39 79 0 102 4 133 21 46 26 111 92 133 133
15 30 35 42 35 22 0 -6 28 -39 63 -74 125 -126 223 -144 408 -75 37 14 98 56
134 92 35 35 85 103 85 115 0 24 29 9 35 -19 4 -16 11 -32 16 -35 5 -4 9 -14
9 -23 0 -25 74 -107 117 -129 142 -74 268 -47 356 76 18 25 36 54 40 64 13 34
27 6 27 -52 0 -42 5 -64 19 -80 47 -54 238 -65 287 -16 23 23 24 30 24 169 0
139 23 343 50 441 46 167 55 191 107 301 35 75 55 100 73 89 6 -4 10 -63 10
-158 0 -156 20 -378 46 -502 8 -38 14 -78 14 -88 0 -23 27 -83 53 -117 35 -47
67 -60 143 -60 89 0 104 13 104 90 0 106 62 449 101 565 6 17 15 44 19 60 12
41 33 95 48 122 7 12 12 28 12 36 0 7 11 24 25 37 l26 24 -7 -132 c-9 -163 11
-480 36 -579 10 -39 30 -96 45 -126 26 -57 108 -157 128 -157 6 0 18 -6 26
-14 9 -7 44 -19 78 -26 88 -18 151 0 213 60 81 80 90 107 90 285 0 90 -4 156
-10 160 -13 8 -50 -54 -50 -85 0 -29 -24 -106 -52 -168 -20 -44 -67 -82 -100
-82 -25 0 -77 59 -95 105 -49 132 -64 393 -42 753 13 208 9 225 -50 270 -58
44 -167 92 -208 92 -61 0 -117 -64 -144 -165 -7 -29 -13 -46 -59 -165 -26 -67
-78 -279 -95 -384 -6 -33 -8 -37 -20 -25 -22 22 -35 165 -35 374 0 163 -3 196
-19 231 -33 71 -139 134 -228 134 -66 0 -113 -71 -188 -280 -30 -84 -37 -107
-45 -135 -5 -16 -14 -46 -21 -65 -6 -19 -14 -41 -15 -48 -2 -7 -8 -10 -14 -7
-6 4 -10 92 -10 234 0 262 1 259 -93 272 -29 4 -72 11 -97 14 -83 12 -79 29
-89 -385 -6 -201 -8 -390 -5 -420 13 -127 -85 -348 -174 -396 -32 -17 -35 -17
-68 1 -20 10 -43 33 -51 49 -47 89 -62 369 -44 780 l12 268 -23 25 c-38 40
-99 63 -171 63 -72 0 -97 -16 -97 -63 0 -38 -13 -34 -61 18 -23 25 -46 45 -52
45 -6 0 -18 6 -26 14 -19 16 -106 36 -159 36 -202 -1 -385 -243 -434 -575 -17
-117 -17 -333 1 -412 12 -56 12 -67 -5 -115 -22 -61 -86 -133 -128 -144 -50
-12 -106 32 -134 106 -67 178 -59 419 24 751 8 30 14 82 14 115 0 52 -4 64
-29 91 -16 18 -40 35 -54 38 -36 9 -157 1 -270 -20 -54 -9 -104 -14 -112 -11
-11 4 -15 23 -15 74 0 58 -3 72 -22 89 -52 47 -103 56 -177 31 -82 -27 -131
-107 -131 -213 0 -54 4 -68 32 -106 17 -24 36 -47 42 -51 7 -5 7 -17 0 -40 -6
-18 -19 -60 -29 -93 -10 -33 -24 -75 -32 -92 -7 -18 -20 -47 -27 -65 -39 -91
-116 -240 -152 -293 -22 -33 -43 -68 -47 -78 -4 -10 -13 -17 -20 -14 -9 3 -12
105 -12 463 l0 459 -55 27 c-74 36 -179 39 -210 6 -11 -12 -20 -30 -20 -39 0
-34 -19 -29 -61 16 -23 25 -47 45 -52 45 -6 0 -18 6 -26 14 -19 16 -106 36
-158 36 -81 0 -169 -43 -235 -114 -34 -36 -108 -148 -108 -163 0 -3 -13 -35
-30 -70 -16 -34 -30 -72 -30 -84 0 -11 -5 -29 -11 -40 -6 -12 -17 -89 -26
-172 -13 -127 -13 -172 -3 -272 11 -109 10 -124 -6 -165 -27 -69 -61 -119 -97
-140 -40 -25 -64 -25 -102 -2 -34 21 -45 41 -70 126 -15 52 -17 111 -16 519 1
516 8 468 -78 507 -29 13 -65 20 -106 20 -69 0 -87 -12 -87 -55 0 -41 -16 -39
-66 7 -64 60 -126 88 -209 95 -118 10 -209 -36 -300 -151 -111 -138 -165 -307
-178 -551 -10 -181 -44 -282 -131 -395 -56 -73 -80 -91 -125 -97 -32 -5 -42
-1 -63 22 -63 68 -79 249 -66 775 9 361 13 412 34 430 7 5 91 11 191 12 l179
3 23 40 c25 44 31 123 11 130 -7 2 -101 11 -208 20 -107 9 -197 20 -200 24 -3
5 -3 80 0 167 6 185 4 203 -18 210 -9 3 -30 11 -47 19 -42 18 -146 45 -177 45
-14 0 -33 -9 -43 -20z m4883 -932 c72 -56 111 -190 112 -382 0 -125 -22 -289
-46 -343 -8 -17 -14 -36 -14 -43 0 -27 -62 -133 -97 -165 -41 -38 -84 -51
-137 -41 -51 10 -91 64 -136 186 -8 22 -15 104 -18 219 -5 234 13 347 77 480
25 52 96 109 139 113 47 4 98 -6 120 -24z m-3613 2 c75 -46 124 -243 111 -445
-10 -155 -21 -225 -45 -290 -12 -33 -25 -69 -28 -80 -10 -33 -71 -119 -100
-139 -15 -11 -49 -22 -78 -24 -46 -4 -55 -1 -86 26 -92 81 -133 276 -110 525
19 216 52 316 129 394 52 53 53 53 114 53 43 0 70 -6 93 -20z m1337 -14 c20
-20 44 -59 58 -97 23 -60 24 -77 24 -264 0 -171 -3 -212 -21 -280 -42 -157
-70 -219 -124 -274 -91 -91 -207 -56 -256 77 -77 208 -57 568 42 747 51 92 97
123 181 124 56 1 64 -2 96 -33z m123 -1333 c-2 -16 -6 -104 -9 -198 -6 -169
-24 -294 -52 -347 -8 -14 -14 -31 -14 -38 0 -22 -52 -79 -91 -99 -51 -27 -104
-26 -154 2 -86 48 -98 168 -32 307 37 77 133 203 238 314 85 90 122 109 114
59z"/>
</g>
</svg>
