<svg version="1.0" xmlns="http://www.w3.org/2000/svg"  width="1449.000000pt" height="1074.000000pt" viewBox="0 0 1449.000000 1074.000000"  preserveAspectRatio="xMidYMid meet">  <g transform="translate(0.000000,1074.000000) scale(0.100000,-0.100000)" fill="#000000" stroke="none"> <path d="M6205 10644 c-89 -11 -372 -30 -815 -54 -107 -6 -301 -17 -430 -25 -129 -8 -343 -19 -475 -25 -426 -18 -634 -31 -1149 -70 -71 -6 -186 -10 -255 -10 -69 0 -180 -5 -246 -10 -66 -6 -212 -14 -325 -20 -113 -5 -268 -14 -345 -20 -77 -5 -241 -17 -365 -25 -337 -23 -463 -51 -670 -148 -293 -137 -560 -403 -703 -701 -53 -110 -70 -152 -91 -231 -9 -33 -23 -85 -31 -115 -31 -107 -29 -555 5 -1063 5 -84 17 -278 25 -432 32 -583 46 -817 60 -1030 9 -121 15 -254 15 -295 0 -41 5 -123 10 -182 6 -59 14 -212 20 -340 5 -128 14 -303 19 -388 27 -391 32 -487 41 -660 25 -519 58 -1026 70 -1065 5 -16 12 -55 16 -85 3 -30 15 -76 24 -101 30 -74 106 -231 132 -269 13 -19 27 -42 30 -50 11 -27 174 -224 224 -270 246 -229 517 -354 843 -390 125 -14 598 -9 801 9 63 5 230 15 370 20 140 6 320 16 400 21 340 23 478 31 700 40 129 5 291 14 360 20 69 5 242 15 384 21 258 11 260 11 277 -9 14 -17 17 -52 22 -199 7 -256 44 -402 157 -618 85 -165 135 -231 295 -390 127 -128 150 -146 250 -200 123 -66 160 -84 225 -109 25 -10 59 -23 75 -30 67 -28 103 -38 165 -46 36 -5 97 -13 135 -19 76 -11 414 -37 590 -46 61 -2 265 -14 455 -25 190 -11 426 -24 525 -30 99 -5 203 -12 230 -15 51 -5 343 -21 655 -35 96 -4 272 -15 390 -23 118 -9 307 -21 420 -26 113 -6 284 -15 380 -21 96 -5 281 -14 410 -20 129 -6 303 -16 385 -22 218 -17 704 -16 785 0 229 47 513 179 650 301 25 22 48 41 52 41 16 0 189 206 256 304 39 58 72 109 72 111 0 3 12 29 26 58 69 141 102 269 128 497 17 145 49 591 66 915 23 438 29 557 39 715 27 418 33 516 41 675 9 183 22 394 45 735 9 118 15 251 15 295 0 44 5 118 10 165 6 47 15 180 20 295 12 263 26 510 45 780 37 518 5 781 -128 1055 -125 258 -339 497 -571 640 -302 184 -520 224 -1427 260 -118 5 -226 11 -240 15 -13 3 -123 10 -244 15 -121 5 -303 14 -405 20 -524 30 -742 41 -1020 55 -168 8 -375 19 -460 25 -85 5 -238 15 -340 20 -213 12 -255 17 -268 33 -14 18 -20 66 -32 237 -24 365 -54 498 -163 720 -181 372 -460 628 -817 750 -36 12 -126 38 -200 57 -132 34 -140 35 -365 38 -126 2 -243 2 -260 -1z m596 -318 c112 -29 162 -47 258 -92 101 -48 252 -162 315 -237 19 -23 51 -60 71 -82 85 -92 196 -317 238 -480 40 -152 70 -522 47 -565 -11 -21 -17 -22 -108 -17 -298 17 -681 28 -777 24 -278 -14 -581 -132 -840 -326 -130 -97 -266 -258 -362 -426 -130 -226 -180 -441 -207 -880 -9 -137 -23 -351 -31 -475 -8 -124 -17 -279 -20 -345 -3 -66 -12 -161 -19 -212 l-13 -91 -114 -134 c-63 -73 -136 -160 -164 -193 -27 -33 -73 -85 -101 -115 -28 -30 -85 -94 -125 -141 -127 -147 -259 -297 -404 -459 -77 -86 -189 -212 -250 -281 -185 -210 -235 -248 -323 -249 -44 0 -112 36 -174 93 -169 154 -448 404 -532 476 -28 24 -73 64 -101 90 -27 25 -95 87 -150 136 -55 50 -129 118 -165 152 -79 75 -200 167 -238 181 -114 41 -206 50 -275 26 -151 -50 -210 -99 -435 -353 -81 -91 -174 -195 -208 -231 -84 -89 -227 -251 -321 -365 -27 -33 -83 -96 -124 -140 -125 -134 -155 -168 -197 -220 -48 -62 -102 -109 -112 -98 -12 12 -40 364 -40 495 -1 62 -5 158 -10 213 -6 55 -14 188 -19 295 -5 107 -14 276 -20 375 -7 99 -18 293 -26 430 -8 138 -19 329 -25 425 -5 96 -12 234 -15 305 -6 130 -12 245 -40 710 -8 138 -19 356 -25 485 -6 129 -15 282 -20 340 -6 58 -10 247 -11 420 0 256 3 329 16 385 14 63 92 263 120 310 170 281 372 450 646 539 131 42 238 56 594 76 99 5 261 15 360 20 315 18 544 30 760 40 116 5 266 14 335 19 69 6 184 13 255 16 72 3 186 10 255 15 69 5 271 16 450 25 179 8 387 20 463 26 76 6 229 15 340 20 111 5 245 13 297 19 52 5 145 10 205 10 100 0 226 8 485 30 159 14 556 5 631 -14z m594 -1741 c94 -8 217 -15 275 -15 58 0 168 -7 245 -15 77 -8 190 -15 250 -15 61 0 150 -5 198 -10 87 -10 389 -30 757 -50 102 -6 289 -17 415 -25 127 -9 327 -20 445 -25 118 -6 278 -15 355 -20 287 -20 617 -39 850 -50 132 -6 247 -14 255 -17 8 -2 85 -8 170 -13 159 -8 251 -20 352 -46 32 -8 65 -14 74 -14 34 0 202 -81 299 -145 133 -87 285 -244 353 -363 117 -207 155 -330 173 -558 11 -134 8 -194 -36 -959 -8 -132 -19 -339 -25 -460 -5 -121 -12 -238 -15 -260 -3 -22 -9 -137 -15 -255 -5 -118 -14 -278 -20 -355 -5 -77 -16 -268 -25 -425 -8 -157 -22 -379 -30 -495 -9 -115 -15 -248 -15 -295 0 -47 -7 -161 -15 -255 -8 -93 -15 -215 -15 -270 0 -55 -7 -174 -15 -265 -8 -91 -15 -194 -15 -230 1 -87 -27 -409 -46 -545 -27 -191 -97 -380 -190 -512 -154 -218 -242 -296 -461 -407 -96 -49 -199 -86 -236 -86 -14 0 -44 -7 -67 -15 -52 -18 -387 -21 -605 -4 -77 5 -207 14 -290 19 -82 5 -229 14 -325 19 -264 16 -560 31 -800 41 -118 5 -228 11 -245 14 -16 3 -235 17 -485 31 -250 14 -468 27 -485 30 -16 3 -142 10 -280 15 -137 5 -349 17 -470 25 -121 8 -321 19 -445 25 -124 6 -295 17 -380 25 -85 8 -176 15 -202 15 -51 0 -161 19 -302 52 -91 21 -282 110 -355 165 -283 213 -437 451 -503 778 -12 58 -4 591 12 815 11 161 29 473 60 1015 11 198 25 441 31 540 5 99 17 293 25 430 8 138 18 331 24 430 5 99 14 254 20 345 41 639 57 910 65 1115 10 259 44 547 81 690 21 77 70 196 108 260 69 116 208 271 331 370 97 79 291 162 475 205 99 23 475 26 715 5z m-2080 -2995 c4 -6 2 -70 -4 -143 -6 -72 -17 -253 -26 -402 -26 -452 -45 -768 -60 -1025 -28 -464 -35 -575 -41 -720 -6 -169 -18 -259 -36 -277 -14 -13 -198 -27 -578 -43 -118 -5 -282 -14 -365 -20 -82 -5 -214 -15 -291 -20 -78 -6 -216 -10 -305 -10 -90 -1 -227 -5 -304 -10 -77 -5 -246 -14 -375 -20 -129 -6 -293 -15 -364 -21 -71 -5 -262 -10 -425 -10 -263 -1 -305 2 -376 19 -126 32 -170 48 -290 109 -292 149 -582 539 -612 825 l-5 47 124 142 c67 78 140 163 162 188 21 25 93 106 160 180 66 74 150 169 185 210 36 42 67 78 70 81 13 11 120 130 186 205 39 44 106 118 150 165 44 47 127 139 185 204 132 150 166 176 232 176 45 0 56 -5 126 -59 42 -33 91 -72 108 -88 17 -15 62 -55 100 -88 38 -33 103 -91 144 -130 42 -38 102 -92 134 -120 32 -27 142 -126 245 -219 255 -231 377 -336 438 -378 77 -53 162 -79 275 -85 96 -6 98 -5 174 31 63 30 95 54 178 139 56 56 145 152 197 212 112 131 324 370 390 440 26 28 62 69 81 92 18 23 101 119 184 215 82 95 159 183 169 196 20 23 49 29 60 12z"/> <path d="M2035 9255 c-201 -33 -383 -148 -491 -311 -55 -82 -103 -216 -116 -317 -39 -305 135 -625 407 -752 95 -44 153 -55 297 -55 164 0 192 6 308 63 137 68 299 240 353 375 9 23 25 60 34 82 13 32 17 75 17 203 l1 162 -34 80 c-44 103 -91 175 -166 251 -117 119 -281 201 -448 223 -43 6 -79 11 -80 10 -1 -1 -38 -7 -82 -14z m230 -311 c109 -37 201 -117 251 -220 27 -56 29 -66 29 -184 l0 -125 -37 -66 c-39 -69 -143 -175 -201 -206 -47 -25 -161 -40 -242 -33 -55 6 -83 15 -130 43 -75 44 -168 137 -195 193 -29 58 -43 155 -36 242 14 173 151 338 310 372 57 13 192 4 251 -16z"/> <path d="M8035 6980 c-200 -25 -437 -235 -491 -433 -14 -50 -33 -264 -54 -597 -5 -85 -14 -220 -20 -300 -19 -266 -31 -473 -40 -675 -5 -110 -14 -252 -20 -315 -5 -63 -10 -160 -10 -215 0 -55 -7 -163 -15 -240 -8 -77 -15 -174 -15 -215 0 -41 -7 -140 -15 -220 -19 -189 -19 -290 1 -364 39 -155 50 -185 87 -249 55 -94 168 -205 250 -245 118 -58 174 -73 278 -74 98 -1 133 7 254 54 54 22 521 253 800 398 167 86 558 284 1410 715 l430 217 92 91 c74 74 98 106 126 167 92 198 89 377 -10 585 -55 117 -105 168 -293 301 -78 55 -1446 965 -1571 1046 -57 36 -198 128 -314 203 -115 76 -248 163 -295 193 -47 30 -103 67 -125 81 -39 26 -80 45 -160 74 -50 18 -200 28 -280 17z m304 -343 c64 -33 558 -357 946 -622 352 -240 609 -414 915 -621 484 -327 536 -365 573 -411 60 -74 70 -105 70 -214 1 -89 -2 -102 -31 -160 -49 -101 -103 -139 -442 -312 -304 -155 -2151 -1078 -2235 -1117 -77 -36 -180 -54 -236 -41 -67 15 -132 61 -187 132 -29 38 -58 83 -64 101 -12 35 -6 374 12 638 5 85 17 254 25 375 8 121 21 335 29 475 9 140 22 368 31 505 8 138 16 291 16 340 0 50 4 133 9 185 5 52 14 169 20 260 17 296 44 369 173 472 59 47 100 58 207 56 88 -3 101 -6 169 -41z"/> </g> </svg>