<svg version="1.0" xmlns="http://www.w3.org/2000/svg"  width="192.000000pt" height="192.000000pt" viewBox="0 0 192.000000 192.000000"  preserveAspectRatio="xMidYMid meet">  <g transform="translate(0.000000,192.000000) scale(0.100000,-0.100000)" fill="#000000" stroke="none"> <path d="M120 1843 c-14 -3 -35 -14 -48 -26 l-22 -20 0 -852 0 -852 23 -21 23 -22 850 0 851 0 24 26 24 26 0 837 c0 939 5 879 -72 900 -37 11 -1597 14 -1653 4z m458 -185 c8 -8 12 -62 12 -175 l0 -163 -26 -10 c-35 -14 -321 -13 -329 1 -9 13 -8 336 0 349 9 15 328 13 343 -2z m536 -4 c13 -13 16 -43 16 -175 l0 -159 -26 -10 c-27 -11 -292 -14 -318 -4 -14 5 -16 31 -16 178 0 95 3 176 7 179 3 4 77 7 164 7 130 0 160 -3 173 -16z m544 4 c8 -8 12 -62 12 -175 l0 -163 -26 -10 c-38 -15 -317 -13 -332 2 -15 15 -17 310 -2 339 10 18 23 19 173 19 114 0 167 -4 175 -12z m-1085 -541 c16 -11 17 -31 15 -177 l-3 -165 -177 -3 c-139 -2 -178 0 -178 10 -3 70 2 333 6 340 9 14 318 10 337 -5z m537 3 c12 -8 15 -39 15 -177 l0 -168 -177 -3 -178 -2 0 173 c0 96 3 177 7 180 10 11 316 8 333 -3z m545 -6 c13 -13 15 -40 13 -177 l-3 -162 -180 0 -180 0 -3 151 c-1 84 2 163 7 178 l11 26 159 0 c133 0 162 -3 176 -16z m-1076 -538 c8 -9 11 -65 9 -177 l-3 -164 -169 -5 c-92 -3 -173 -2 -178 1 -11 7 -13 333 -3 349 4 6 77 10 169 10 127 0 166 -3 175 -14z m541 -6 c6 -12 9 -80 8 -177 l-3 -158 -177 -3 -178 -2 0 173 c0 96 3 177 7 180 3 4 80 7 169 7 153 0 164 -1 174 -20z m539 6 c8 -9 11 -65 9 -177 l-3 -164 -168 -5 c-93 -3 -175 -1 -183 3 -11 6 -14 39 -14 163 0 88 4 164 10 175 10 18 23 19 174 19 127 0 166 -3 175 -14z"/> </g> </svg>