<svg version="1.0" xmlns="http://www.w3.org/2000/svg"  width="336.000000pt" height="303.000000pt" viewBox="0 0 336.000000 303.000000"  preserveAspectRatio="xMidYMid meet">  <g transform="translate(0.000000,303.000000) scale(0.100000,-0.100000)" fill="#000000" stroke="none"> <path d="M325 2565 c-41 -42 -47 -91 -15 -140 10 -16 208 -217 439 -445 457 -453 418 -405 456 -560 7 -30 19 -77 25 -105 7 -27 16 -66 20 -85 10 -48 29 -126 45 -185 17 -65 36 -141 45 -185 11 -52 47 -197 107 -435 31 -123 62 -153 147 -141 36 6 51 14 73 44 32 42 50 70 60 92 4 8 18 33 32 55 14 22 34 56 44 75 11 19 32 54 48 78 16 24 29 45 29 47 0 4 140 244 160 275 6 8 15 24 20 35 6 11 19 34 30 50 11 17 24 39 30 50 6 11 19 34 30 50 11 17 24 39 30 50 6 11 19 34 30 50 11 17 24 39 30 50 6 11 19 34 30 50 11 17 24 39 29 50 5 11 21 37 35 58 14 21 26 39 26 41 0 2 33 60 73 127 40 68 76 131 80 139 9 17 21 36 58 95 14 22 29 47 32 55 4 8 16 29 27 45 11 17 24 39 30 50 6 11 19 34 30 50 11 17 24 39 30 50 6 11 19 34 30 50 11 17 24 39 29 50 5 11 21 37 35 58 14 21 26 40 26 42 0 2 20 38 45 79 66 111 59 169 -22 210 -29 14 -152 16 -1267 16 l-1235 0 -36 -35z m1990 -214 c3 -5 -7 -16 -22 -23 -37 -19 -180 -97 -218 -119 -16 -10 -48 -27 -70 -39 -22 -12 -62 -35 -90 -50 -27 -15 -68 -38 -90 -50 -22 -12 -58 -31 -80 -44 -22 -12 -71 -40 -110 -61 -38 -21 -83 -46 -100 -56 -16 -10 -52 -30 -80 -44 -27 -14 -68 -37 -90 -50 -72 -43 -33 -72 -437 321 -120 116 -215 214 -211 217 10 11 1591 8 1598 -2z m135 -243 c-11 -18 -24 -42 -30 -53 -6 -11 -19 -33 -30 -50 -11 -16 -24 -39 -30 -50 -6 -11 -19 -33 -30 -50 -11 -16 -24 -39 -30 -50 -6 -11 -19 -33 -30 -50 -11 -16 -24 -39 -30 -50 -6 -11 -19 -33 -30 -50 -11 -16 -23 -37 -27 -45 -3 -8 -18 -33 -32 -55 -14 -22 -34 -55 -44 -74 -10 -19 -31 -52 -45 -75 -14 -23 -35 -57 -45 -76 -11 -19 -32 -54 -48 -78 -16 -24 -29 -45 -29 -46 0 -2 -33 -60 -73 -127 -40 -68 -76 -131 -80 -139 -4 -8 -13 -24 -20 -35 -7 -11 -24 -38 -37 -60 -14 -23 -31 -50 -38 -60 -6 -11 -16 -29 -22 -40 -5 -11 -18 -31 -29 -45 -15 -19 -21 -22 -25 -10 -12 40 -52 195 -66 260 -4 19 -13 58 -20 85 -6 28 -18 76 -26 108 -8 31 -20 83 -28 115 -8 31 -19 77 -26 102 -26 101 -31 153 -18 166 12 12 34 24 137 81 25 13 64 35 86 47 22 12 72 40 110 61 39 21 84 46 100 56 17 10 53 30 80 44 28 14 64 34 80 44 17 9 62 35 100 56 39 21 93 50 120 65 28 15 68 38 90 50 22 12 54 30 70 40 17 10 38 19 47 19 16 1 16 -2 -2 -31z"/> </g> </svg>