<?xml version="1.0" standalone="no"?>
<!DOCTYPE svg PUBLIC "-//W3C//DTD SVG 20010904//EN"
 "http://www.w3.org/TR/2001/REC-SVG-20010904/DTD/svg10.dtd">
<svg version="1.0" xmlns="http://www.w3.org/2000/svg"
 width="351.000000pt" height="351.000000pt" viewBox="0 0 351.000000 351.000000"
 preserveAspectRatio="xMidYMid meet">
<metadata>
Created by potrace 1.10, written by Peter Selinger 2001-2011
</metadata>
<g transform="translate(0.000000,351.000000) scale(0.100000,-0.100000)"
fill="#000000" stroke="none">
<path d="M701 3418 c-35 -5 -76 -15 -92 -23 -15 -8 -34 -15 -41 -15 -7 0 -40
-14 -73 -32 -217 -114 -362 -310 -406 -548 -21 -110 -20 -1993 0 -2094 33
-162 103 -295 214 -405 109 -108 209 -165 352 -201 l90 -23 1010 -1 c943 -1
1015 0 1085 17 140 34 300 126 389 223 105 114 159 220 190 373 20 97 21 128
21 1068 0 916 -1 973 -19 1058 -24 109 -52 179 -107 265 -69 109 -137 171
-286 263 -50 31 -157 66 -233 76 -95 14 -2001 13 -2094 -1z m2087 -209 c47
-11 111 -33 142 -49 114 -57 218 -177 270 -310 l25 -65 0 -1030 0 -1030 -22
-57 c-38 -98 -80 -162 -151 -230 -37 -36 -91 -76 -122 -90 -30 -14 -73 -34
-95 -44 -38 -18 -85 -19 -1075 -19 l-1035 0 -68 27 c-129 53 -223 131 -292
243 -84 138 -80 79 -80 1205 0 945 1 998 19 1055 66 211 210 346 421 395 74
17 146 18 1029 19 926 1 950 1 1034 -20z"/>
<path d="M1704 2669 c-11 -6 -28 -23 -37 -39 -15 -25 -17 -70 -17 -389 0 -346
-1 -361 -19 -371 -13 -6 -147 -10 -366 -10 -336 0 -349 -1 -385 -21 -58 -33
-73 -76 -45 -129 30 -59 39 -60 433 -60 265 0 361 -3 370 -12 9 -9 12 -105 12
-370 0 -388 1 -397 54 -432 42 -27 83 -21 122 18 l34 34 0 370 c0 286 3 373
13 379 6 4 179 10 384 13 l372 5 30 29 c60 57 30 141 -58 166 -21 6 -176 10
-369 10 -211 0 -340 4 -353 10 -18 10 -19 25 -19 370 0 204 -4 370 -10 384
-17 46 -95 69 -146 45z"/>
</g>
</svg>
