<?xml version="1.0" standalone="no"?>
<!DOCTYPE svg PUBLIC "-//W3C//DTD SVG 20010904//EN"
 "http://www.w3.org/TR/2001/REC-SVG-20010904/DTD/svg10.dtd">
<svg version="1.0" xmlns="http://www.w3.org/2000/svg"
 width="387.000000pt" height="387.000000pt" viewBox="0 0 387.000000 387.000000"
 preserveAspectRatio="xMidYMid meet">
<metadata>
Created by potrace 1.10, written by Peter Selinger 2001-2011
</metadata>
<g transform="translate(0.000000,387.000000) scale(0.100000,-0.100000)"
fill="#000000" stroke="none">
<path d="M943 3449 c-239 -23 -502 -175 -652 -378 -67 -90 -126 -207 -157
-311 -31 -105 -43 -310 -25 -440 59 -436 458 -965 1142 -1512 338 -270 423
-331 535 -384 51 -24 71 -28 149 -28 128 0 183 27 408 199 65 49 130 99 145
110 57 42 192 153 322 264 384 329 670 663 814 949 56 112 88 195 122 320 24
89 26 105 21 266 -4 147 -8 183 -30 254 -48 154 -150 325 -254 423 -104 100
-265 195 -403 238 -134 42 -435 46 -545 6 -22 -7 -60 -19 -85 -25 -109 -28
-302 -142 -423 -250 -43 -38 -77 -60 -92 -60 -15 0 -47 21 -87 56 -35 31 -79
67 -98 80 -94 64 -115 76 -187 114 -119 61 -251 98 -390 110 -65 5 -125 9
-133 8 -8 0 -52 -4 -97 -9z m257 -209 c230 -40 439 -157 597 -335 63 -72 97
-95 140 -95 38 0 62 19 173 130 157 157 339 261 505 289 33 6 88 15 123 21 42
7 81 7 120 1 31 -6 82 -14 113 -20 156 -27 338 -147 449 -296 129 -174 174
-395 128 -635 -23 -122 -126 -339 -237 -500 -166 -241 -445 -523 -807 -816
-420 -340 -458 -364 -571 -364 -108 0 -146 24 -538 340 -225 180 -357 298
-509 454 -387 396 -586 760 -586 1071 0 159 79 372 179 488 113 130 281 235
412 257 35 6 82 15 104 19 62 13 78 12 205 -9z"/>
</g>
</svg>
