<?xml version="1.0" standalone="no"?>
<!DOCTYPE svg PUBLIC "-//W3C//DTD SVG 20010904//EN"
 "http://www.w3.org/TR/2001/REC-SVG-20010904/DTD/svg10.dtd">
<svg version="1.0" xmlns="http://www.w3.org/2000/svg"
 width="672.000000pt" height="672.000000pt" viewBox="0 0 672.000000 672.000000"
 preserveAspectRatio="xMidYMid meet">
<metadata>
Created by potrace 1.10, written by Peter Selinger 2001-2011
</metadata>
<g transform="translate(0.000000,672.000000) scale(0.100000,-0.100000)"
fill="#000000" stroke="none">
<path d="M3276 6605 c-21 -7 -53 -27 -70 -43 -17 -16 -47 -39 -66 -53 -19 -13
-41 -31 -48 -41 -7 -10 -25 -24 -40 -32 -15 -8 -44 -29 -64 -48 -20 -18 -62
-53 -93 -78 -32 -25 -76 -61 -99 -81 -22 -20 -62 -50 -88 -68 -27 -17 -48 -36
-48 -41 0 -5 -20 -21 -45 -36 -25 -14 -50 -35 -56 -45 -5 -10 -24 -26 -41 -35
-17 -9 -46 -30 -64 -48 -37 -36 -88 -77 -159 -132 -27 -20 -54 -43 -60 -50 -5
-6 -29 -24 -53 -38 -24 -15 -46 -34 -49 -42 -3 -8 -18 -21 -34 -30 -16 -8 -44
-29 -63 -47 -49 -46 -123 -107 -165 -135 -20 -13 -55 -41 -78 -61 -23 -20 -65
-54 -94 -76 -28 -22 -65 -54 -82 -71 -18 -17 -49 -41 -69 -53 -21 -12 -38 -27
-38 -32 0 -5 -19 -21 -42 -35 -24 -15 -62 -43 -85 -63 -23 -20 -69 -58 -103
-86 -34 -27 -74 -62 -88 -76 -15 -14 -46 -38 -69 -52 -24 -15 -43 -31 -43 -36
0 -5 -17 -20 -37 -32 -20 -13 -58 -41 -84 -64 -26 -22 -73 -60 -103 -85 -31
-25 -79 -63 -106 -85 -27 -22 -75 -60 -106 -85 -31 -25 -68 -56 -83 -70 -14
-15 -44 -39 -66 -55 -22 -16 -56 -42 -77 -59 -20 -17 -61 -51 -92 -76 -147
-118 -187 -157 -222 -213 l-37 -59 5 -1857 4 -1858 27 -45 c36 -62 98 -115
144 -124 21 -4 540 -8 1154 -8 1054 -1 1116 0 1140 17 13 10 39 27 57 38 18
12 38 31 45 43 9 16 13 287 17 1156 l5 1135 27 65 c15 36 32 85 39 110 6 25
26 62 45 82 19 21 34 43 34 48 0 14 131 140 145 140 6 0 24 13 40 30 44 46
262 113 370 114 111 1 314 -60 381 -116 25 -20 53 -40 64 -43 10 -3 29 -22 40
-41 12 -19 30 -39 41 -44 10 -6 31 -34 45 -63 15 -29 37 -65 50 -80 29 -34 40
-74 59 -212 13 -89 15 -276 15 -1151 l0 -1045 32 -62 c25 -47 45 -68 83 -91
l50 -31 1135 0 1135 0 49 32 c61 40 80 69 95 141 9 43 11 524 9 1897 l-3 1840
-27 58 c-15 31 -31 57 -36 57 -5 0 -34 21 -65 48 -30 26 -83 70 -117 97 -34
28 -84 68 -110 90 -26 22 -71 58 -100 80 -28 22 -75 60 -105 85 -30 25 -80 65
-110 90 -31 25 -79 64 -106 87 -27 24 -63 50 -79 58 -17 9 -30 20 -30 25 0 5
-19 22 -42 36 -24 15 -54 38 -68 51 -28 27 -104 91 -204 173 -38 30 -90 73
-117 95 -27 22 -72 58 -100 80 -28 22 -65 54 -82 70 -18 17 -45 39 -62 49 -45
30 -213 161 -278 218 -51 45 -123 106 -207 173 -34 28 -84 69 -111 93 -27 23
-54 42 -60 42 -5 0 -30 19 -54 43 -24 23 -67 60 -95 82 -28 22 -70 56 -93 75
-23 20 -59 48 -80 64 -20 15 -50 39 -65 53 -15 14 -39 31 -54 39 -15 8 -33 22
-40 32 -7 11 -32 31 -55 46 -24 14 -43 31 -43 36 0 6 -22 24 -50 41 -27 17
-50 35 -50 39 0 5 -20 23 -45 40 -24 17 -66 49 -92 70 -27 22 -66 56 -89 74
-65 55 -164 71 -248 41z m136 -473 c7 -11 24 -25 38 -32 14 -7 45 -30 70 -51
25 -21 68 -58 96 -82 27 -24 67 -53 87 -66 20 -12 37 -27 37 -32 0 -5 19 -22
43 -37 23 -15 56 -41 74 -57 17 -17 55 -48 82 -70 28 -22 73 -58 100 -80 114
-95 209 -171 326 -265 31 -25 75 -61 98 -81 23 -20 50 -40 59 -45 18 -10 92
-68 183 -144 30 -25 77 -63 106 -85 29 -22 65 -52 81 -67 16 -15 43 -37 61
-50 18 -12 52 -39 77 -60 58 -49 137 -113 201 -163 27 -22 68 -57 90 -77 22
-21 43 -38 48 -38 4 0 33 -21 63 -47 31 -27 83 -70 117 -98 134 -109 167 -136
196 -164 17 -15 49 -41 73 -56 23 -15 42 -31 42 -35 0 -4 17 -19 38 -33 21
-13 59 -42 84 -63 26 -22 72 -59 104 -84 74 -59 153 -139 165 -168 5 -14 9
-666 9 -1648 l0 -1625 -24 -23 c-18 -19 -38 -25 -97 -31 -41 -3 -427 -5 -857
-3 l-784 3 -19 24 c-18 22 -19 53 -19 1000 0 563 -5 1007 -10 1050 -5 41 -21
99 -36 130 -14 31 -34 83 -45 117 -10 33 -28 72 -40 85 -11 13 -32 45 -45 71
-31 60 -232 261 -293 293 -26 13 -56 35 -68 48 -12 13 -41 29 -65 36 -24 7
-60 24 -81 37 -138 90 -669 92 -813 4 -17 -11 -50 -27 -73 -35 -70 -24 -224
-132 -299 -208 -81 -82 -102 -108 -122 -147 -13 -25 -35 -60 -50 -80 -15 -19
-31 -48 -34 -65 -4 -16 -23 -62 -42 -101 -62 -126 -62 -132 -71 -1234 l-8
-995 -50 -18 c-46 -16 -108 -17 -865 -14 -448 2 -823 7 -832 11 -9 4 -21 20
-27 36 -11 32 -16 3218 -5 3276 7 36 87 125 136 150 15 8 32 23 38 34 6 11 25
27 42 36 17 9 46 30 64 48 45 42 112 98 154 126 19 13 54 40 77 59 23 20 67
56 99 81 31 25 68 57 83 71 14 14 40 34 56 44 17 10 34 24 38 31 4 8 29 28 55
45 26 18 66 48 88 68 23 20 67 56 99 81 31 25 73 60 93 78 20 19 49 40 64 48
15 8 33 22 40 31 7 10 39 38 71 63 32 25 74 57 93 72 19 14 53 41 74 60 22 18
65 53 96 78 31 25 74 62 96 83 22 20 44 37 49 37 5 0 30 19 57 43 55 47 180
149 322 262 28 22 75 60 104 85 30 25 79 65 110 90 91 73 165 133 313 253 28
23 73 60 99 82 70 59 156 113 181 114 12 1 28 -7 35 -17z"/>
</g>
</svg>
