<?xml version="1.0" standalone="no"?>
<!DOCTYPE svg PUBLIC "-//W3C//DTD SVG 20010904//EN"
 "http://www.w3.org/TR/2001/REC-SVG-20010904/DTD/svg10.dtd">
<svg version="1.0" xmlns="http://www.w3.org/2000/svg"
 width="345.000000pt" height="345.000000pt" viewBox="0 0 345.000000 345.000000"
 preserveAspectRatio="xMidYMid meet">
<metadata>
Created by potrace 1.10, written by Peter Selinger 2001-2011
</metadata>
<g transform="translate(0.000000,345.000000) scale(0.100000,-0.100000)"
fill="#000000" stroke="none">
<path d="M1454 3441 c7 -10 -17 -21 -46 -21 -33 0 -223 -49 -294 -76 -323
-121 -610 -369 -775 -669 -123 -223 -179 -448 -179 -717 0 -316 85 -584 268
-847 45 -65 71 -95 162 -191 109 -115 317 -254 479 -320 229 -94 529 -131 771
-96 214 31 451 120 602 227 14 11 37 19 51 19 29 0 -2 35 437 -484 135 -159
173 -191 218 -181 38 8 79 48 87 85 9 41 -8 67 -187 278 -83 97 -192 227 -243
288 -52 61 -101 116 -109 123 -30 25 -18 57 51 138 169 198 279 423 335 683
32 152 32 420 0 570 -13 58 -32 127 -43 154 -10 27 -19 55 -19 63 0 8 -27 70
-60 137 -148 304 -386 542 -685 685 -122 59 -282 111 -385 126 -64 9 -81 15
-75 26 4 5 -68 9 -180 9 -107 0 -184 -4 -181 -9z m396 -232 c280 -50 479 -155
680 -358 209 -210 330 -456 362 -736 13 -111 4 -330 -17 -410 -9 -33 -20 -78
-26 -100 -28 -113 -112 -279 -198 -395 -242 -324 -617 -513 -1016 -514 -202
-1 -419 51 -575 136 -374 205 -610 525 -681 923 -11 62 -14 309 -4 390 9 71
45 204 81 294 62 154 154 291 284 421 292 292 706 422 1110 349z"/>
</g>
</svg>
